<svg xmlns="http://www.w3.org/2000/svg" viewBox="0 0 486.1 146.7" xml:space="preserve"><path d="M66.5 21.8c31.8 0 57.7 25.9 57.7 57.7 0 20.5-10.7 38.5-26.8 48.7.2.2.4.3.7.4 16.2-10.4 26.9-28.5 26.9-49.1 0-32.2-26.2-58.4-58.4-58.4-20.7 0-38.8 10.8-49.2 27 .1.2.3.4.4.7 10.2-16.2 28.2-27 48.7-27zm0 115.3c-31.8 0-57.7-25.9-57.7-57.7 0-11 3.5-21.9 8.9-30.7-.1-.2-.3-.4-.4-.7-5.5 8.9-9.2 20.1-9.2 31.4 0 32.2 26.2 58.4 58.4 58.4 11.3 0 22.5-3.7 31.5-9.3-.2-.1-.4-.3-.7-.4-8.7 5.5-19.7 9-30.8 9zm270.7-93.5c-3.6-3.1-8.9-4.6-16-4.6h-15.6v60.3h4.4V75h11.2c3.3 0 6.3-.4 8.9-1.3s4.9-2.1 6.7-3.8c1.8-1.6 3.3-3.5 4.3-5.7s1.5-4.6 1.5-7.3c0-5.8-1.8-10.2-5.4-13.3zm-.2 19.1c-.8 1.8-1.9 3.3-3.4 4.6s-3.2 2.3-5.3 3.1c-2.1.7-4.5 1.1-7.1 1.1H310V42.4h11.2c5.7 0 9.9 1.3 12.7 3.8s4.3 6.1 4.3 10.7c0 2-.4 4-1.2 5.8zm44.4-.6c-1.6-1.9-3.7-3.4-6.1-4.4s-5.1-1.6-8.2-1.6-5.8.5-8.2 1.6c-2.4 1-4.4 2.5-6.1 4.4-1.7 1.9-2.9 4.2-3.8 6.9-.9 2.7-1.3 5.7-1.3 9s.4 6.3 1.3 9 2.1 5 3.8 6.9c1.7 1.9 3.7 3.4 6.1 4.4s5.1 1.5 8.2 1.5 5.8-.5 8.2-1.5 4.4-2.5 6.1-4.4c1.6-1.9 2.9-4.2 3.8-6.9.9-2.7 1.3-5.7 1.3-9s-.4-6.3-1.3-9-2.2-5-3.8-6.9zm0 23.6c-.6 2.3-1.6 4.2-2.8 5.9-1.3 1.6-2.8 2.9-4.7 3.7-1.9.9-4.1 1.3-6.6 1.3s-4.7-.4-6.6-1.3-3.5-2.1-4.7-3.7-2.2-3.6-2.9-5.9c-.6-2.3-1-4.9-1-7.7s.3-5.4 1-7.7c.6-2.3 1.6-4.3 2.9-5.9 1.3-1.6 2.8-2.9 4.7-3.8 1.9-.9 4.1-1.3 6.6-1.3s4.7.4 6.6 1.3c1.9.9 3.5 2.1 4.7 3.8 1.3 1.6 2.2 3.6 2.8 5.9.6 2.3.9 4.9.9 7.7 0 2.9-.3 5.4-.9 7.7zM213.8 61c-1.5-1.6-3.3-2.8-5.3-3.6s-4.3-1.2-6.7-1.2c-3 0-5.7.5-8.1 1.6-2.4 1.1-4.4 2.5-6 4.4s-2.9 4.1-3.8 6.7c-.9 2.6-1.3 5.4-1.3 8.4 0 3.6.5 6.8 1.4 9.6.9 2.8 2.2 5.2 3.9 7.1s3.8 3.4 6.1 4.4c2.4 1 5 1.5 7.9 1.5 1.6 0 3.2-.2 4.8-.5s3.1-.7 4.4-1.3c1.4-.5 2.6-1.2 3.8-1.9 1.1-.7 2-1.5 2.7-2.4l-1.1-1.4c-.2-.3-.5-.4-.9-.4-.3 0-.7.2-1.4.7-.6.5-1.5 1-2.5 1.6-1.1.6-2.4 1.1-3.9 1.6-1.6.5-3.4.7-5.5.7-2.4 0-4.5-.4-6.5-1.2-1.9-.8-3.6-2.1-4.9-3.7-1.4-1.6-2.4-3.7-3.2-6.1-.7-2.4-1.1-5.2-1.1-8.4v-.8h30.9c.4 0 .7-.1.9-.3s.3-.7.3-1.3c0-3-.4-5.6-1.3-7.9-.9-2.4-2.1-4.3-3.6-5.9zm-26.9 12.8c.3-2.2.8-4.2 1.5-6 .8-1.8 1.8-3.3 3-4.6 1.3-1.3 2.8-2.3 4.5-2.9 1.7-.7 3.7-1 5.9-1 1.9 0 3.7.3 5.3 1s3 1.6 4.2 2.9c1.2 1.3 2.1 2.8 2.7 4.6.6 1.8 1 3.8 1 6.1l-28.1-.1zm60-17.7c-1.6 0-3.1.2-4.5.7s-2.6 1.2-3.7 2.2c-1.1.9-2.1 2.1-2.9 3.4-.8 1.4-1.6 2.9-2.2 4.6l-.3-8.9c-.1-.5-.2-.8-.4-1s-.5-.3-1-.3h-2.2v42.4h4.1V71.8c.6-1.9 1.3-3.6 2.1-5.1s1.6-2.7 2.6-3.7 2.1-1.7 3.4-2.2c1.3-.5 2.7-.7 4.4-.7 1.1 0 2.1.1 2.8.3s1.2.3 1.6.3c.4 0 .7-.2.8-.7l.3-2.8c-.7-.4-1.4-.7-2.3-.8-.9-.2-1.8-.3-2.6-.3zm-109.6 55.3c-.2.1-.3.3-.2.5 7 13.8 8.4 24.4 3.8 29.1-2 2-4.7 3-8.2 3-8.9 0-21.7-6.5-34.7-15.3-.2.1-.4.3-.7.4 13.2 8.9 26.3 15.6 35.3 15.6 3.7 0 6.6-1.1 8.7-3.2 4.9-4.9 3.6-15.6-3.6-29.9 0-.3-.2-.3-.4-.2zM93.9 85.5c-2.9 0-5.2 2.3-5.2 5.2 0 2.9 2.3 5.2 5.2 5.2 2.9 0 5.2-2.3 5.2-5.2.1-2.8-2.3-5.2-5.2-5.2zm0 9.7c-2.5 0-4.5-2-4.5-4.5s2-4.5 4.5-4.5 4.5 2 4.5 4.5-2 4.5-4.5 4.5zm39.8-52.6h37.8l-38.4 53.6c-.1.2-.3.5-.4.7-.1.2-.1.5-.1.8v1.6H177v-3.7h-38.6l38.3-53.4c.4-.6.6-1.2.6-1.7V39h-43.6v3.6zM483 94.2c-.2-.3-.5-.4-.7-.4s-.5.1-.8.4-.8.6-1.3 1-1.2.7-1.9 1c-.7.3-1.6.4-2.6.4-.8 0-1.6-.1-2.3-.4-.7-.3-1.3-.7-1.9-1.2-.5-.5-.9-1.2-1.2-2.1-.3-.8-.4-1.8-.4-3V61.2h13.4v-3h-13.4V42H468c-.3 0-.6.1-.7.3-.2.2-.3.4-.3.7l-1 15.2-7.2.5v1.6c0 .3.1.6.3.7.2.2.5.3.8.3h6.1v29c0 3.3.8 5.8 2.4 7.4s3.8 2.4 6.7 2.4c1.8 0 3.5-.4 5.2-1.1s3-1.7 4.1-2.9l-1.4-1.9zm-36.2-33.7c-1.2-1.4-2.6-2.5-4.4-3.2s-3.8-1.1-6.2-1.1c-3.2 0-6 .7-8.6 2.2s-4.8 3.4-6.8 5.9l-.4-6.4c-.1-.7-.5-1.1-1.2-1.1h-2.3v42.4h4.1V67.4c1.9-2.5 4-4.5 6.4-5.9s5-2.1 7.7-2.1c3.7 0 6.5 1.1 8.3 3.4 1.8 2.3 2.7 5.4 2.7 9.4v27.1h4.1V72.2c0-2.5-.3-4.7-.9-6.7-.5-2-1.4-3.6-2.5-5zm-158.3 1.6c-1.6-1.9-3.7-3.4-6.1-4.4s-5.1-1.6-8.2-1.6c-3 0-5.8.5-8.2 1.6-2.4 1-4.4 2.5-6.1 4.4-1.7 1.9-2.9 4.2-3.8 6.9-.9 2.7-1.3 5.7-1.3 9s.4 6.3 1.3 9 2.1 5 3.8 6.9 3.7 3.4 6.1 4.4 5.1 1.5 8.2 1.5c3 0 5.8-.5 8.2-1.5 2.4-1 4.4-2.5 6.1-4.4 1.6-1.9 2.9-4.2 3.8-6.9.9-2.7 1.3-5.7 1.3-9s-.4-6.3-1.3-9-2.2-5-3.8-6.9zm-.1 23.6c-.6 2.3-1.6 4.2-2.8 5.9-1.3 1.6-2.8 2.9-4.7 3.7-1.9.9-4.1 1.3-6.6 1.3s-4.7-.4-6.6-1.3-3.5-2.1-4.7-3.7c-1.3-1.6-2.2-3.6-2.9-5.9s-1-4.9-1-7.7.3-5.4 1-7.7c.6-2.3 1.6-4.3 2.9-5.9 1.3-1.6 2.8-2.9 4.7-3.8 1.9-.9 4.1-1.3 6.6-1.3s4.7.4 6.6 1.3c1.9.9 3.5 2.1 4.7 3.8 1.3 1.6 2.2 3.6 2.8 5.9.6 2.3.9 4.9.9 7.7.1 2.9-.3 5.4-.9 7.7zm110-28.9h4v42.4h-4V56.8zm-396-44c0-3.4.9-5.9 2.6-7.7C9.7.4 20.3 1.8 34.1 8.9c.2.1.4 0 .5-.2s0-.4-.2-.5C20.1.9 9.5-.4 4.5 4.6c-1.8 1.8-2.8 4.6-2.8 8.2 0 8.6 5.6 21.4 15.2 36 .1-.2.3-.4.4-.7C7.9 33.8 2.4 21.2 2.4 12.8zM36 95.4c-2.8 0-5.1 2.3-5.1 5.1s2.3 5.1 5.1 5.1 5.1-2.3 5.1-5.1-2.3-5.1-5.1-5.1zm0 9.5c-2.4 0-4.4-2-4.4-4.4s2-4.4 4.4-4.4 4.4 2 4.4 4.4-2 4.4-4.4 4.4zM17.3 48.1c-.1.2-.3.4-.4.7 9 13.6 21.9 29.4 36.5 43.9 9.4 9.4 27.1 24.9 44 36.4.2-.1.4-.3.7-.4-16.9-11.5-34.7-27-44.1-36.5-14.7-14.7-27.7-30.5-36.7-44.1zm55.7 2c-5.5 0-10 4.5-10 10s4.5 10 10 10 10-4.5 10-10-4.5-10-10-10zm0 19.3c-5.1 0-9.3-4.2-9.3-9.3s4.2-9.3 9.3-9.3 9.3 4.2 9.3 9.3-4.2 9.3-9.3 9.3zm330.1-29.9c-.3-.3-.7-.6-1.2-.8s-.9-.3-1.5-.3c-.5 0-1 .1-1.4.3-.5.2-.9.5-1.2.8-.3.3-.6.7-.8 1.2s-.3 1-.3 1.5.1 1 .3 1.4c.2.4.5.8.8 1.2.3.3.7.6 1.2.8s.9.3 1.4.3 1-.1 1.5-.3.9-.5 1.2-.8c.3-.3.6-.7.8-1.2.2-.4.3-.9.3-1.4s-.1-1-.3-1.5c-.2-.4-.5-.8-.8-1.2z"/></svg>