<?xml version="1.0" encoding="utf-8"?>
<!-- Generator: Adobe Illustrator 25.4.1, SVG Export Plug-In . SVG Version: 6.00 Build 0)  -->
<svg version="1.1" id="Layer_1" xmlns="http://www.w3.org/2000/svg" xmlns:xlink="http://www.w3.org/1999/xlink" x="0px" y="0px"
	 viewBox="0 0 151.8 154.6" style="enable-background:new 0 0 151.8 154.6;" xml:space="preserve">
<style type="text/css">
	.st0{fill:none;stroke:url(#SVGID_1_);stroke-miterlimit:10;}
</style>
<linearGradient id="SVGID_1_" gradientUnits="userSpaceOnUse" x1="3.1257" y1="77.6085" x2="146.8224" y2="77.6085">
	<stop  offset="0" style="stop-color:#7950F2"/>
	<stop  offset="1" style="stop-color:#F783AC"/>
</linearGradient>
<path class="st0" d="M19.3,53.9c-5.4,8.8-8.5,19-8.5,30c0,31.8,25.9,57.7,57.7,57.7c11.1,0,21.4-3.1,30.2-8.5
	c-16.9-11.5-33.9-26.5-43.3-36C40.8,82.6,28.3,67.5,19.3,53.9z M37.9,110.1c-2.8,0-5.1-2.3-5.1-5.1c0-2.8,2.3-5.1,5.1-5.1
	c2.8,0,5.1,2.3,5.1,5.1C43,107.8,40.8,110.1,37.9,110.1z M100.3,95.2c0,2.5-2,4.5-4.5,4.5s-4.5-2-4.5-4.5s2-4.5,4.5-4.5
	S100.3,92.8,100.3,95.2z M42.3,105c0,2.4-2,4.4-4.4,4.4c-2.4,0-4.4-2-4.4-4.4c0-2.4,2-4.4,4.4-4.4C40.4,100.6,42.3,102.6,42.3,105z
	 M84.2,64.6c0,5.1-4.2,9.3-9.3,9.3s-9.3-4.2-9.3-9.3s4.2-9.3,9.3-9.3S84.2,59.5,84.2,64.6z M19.3,53.9c-0.1-0.2-0.3-0.4-0.4-0.7
	c0.1-0.2,0.3-0.4,0.4-0.7c0.1,0.2,0.3,0.4,0.4,0.7C19.6,53.5,19.4,53.7,19.3,53.9z M126.1,83.9c0-31.8-25.9-57.7-57.7-57.7
	c-20.5,0-38.5,10.8-48.8,27c9,13.6,21.5,28.8,36.1,43.3c9.4,9.5,26.6,24.6,43.5,36.1C115.4,122.4,126.1,104.4,126.1,83.9z
	 M74.9,74.6c-5.5,0-10-4.5-10-10s4.5-10,10-10s10,4.5,10,10S80.5,74.6,74.9,74.6z M95.9,100.4c-2.9,0-5.2-2.3-5.2-5.2
	c0-2.9,2.3-5.2,5.2-5.2c2.9,0,5.2,2.3,5.2,5.2C101.1,98.1,98.7,100.4,95.9,100.4z M100,133.1c-0.2,0.1-0.4,0.3-0.7,0.4
	c-0.2-0.1-0.4-0.3-0.7-0.5c0.2-0.1,0.4-0.3,0.7-0.4C99.5,132.8,99.7,132.9,100,133.1z M19.7,53.2c-0.1-0.2-0.3-0.4-0.4-0.7
	c10.4-16.2,28.6-27,49.2-27c32.2,0,58.4,26.2,58.4,58.4c0,20.6-10.7,38.8-26.9,49.1c-0.2-0.1-0.4-0.3-0.7-0.4
	c16.1-10.2,26.8-28.2,26.8-48.7c0-31.8-25.9-57.7-57.7-57.7C48,26.3,29.9,37.1,19.7,53.2z M99.3,132.6c0.2,0.2,0.4,0.3,0.7,0.4
	c-9,5.6-20.2,9.3-31.5,9.3c-32.2,0-58.4-26.2-58.4-58.4c0-11.3,3.6-22.4,9.2-31.4c0.1,0.2,0.3,0.4,0.4,0.7
	c-5.4,8.8-8.9,19.7-8.9,30.7c0,31.8,25.9,57.7,57.7,57.7C79.5,141.6,90.5,138,99.3,132.6z M139.7,116c7.3,14.4,8.6,25,3.6,29.9
	c-2.1,2.1-5.1,3.2-8.7,3.2c0,0,0,0,0,0c-9.1,0-22.1-6.7-35.3-15.6c0.2-0.1,0.4-0.3,0.7-0.4c13,8.8,25.8,15.3,34.7,15.3c0,0,0,0,0,0
	c3.5,0,6.2-1,8.2-3c4.6-4.6,3.3-15.2-3.8-29.1c-0.1-0.2,0-0.4,0.2-0.5C139.4,115.8,139.6,115.8,139.7,116z M95.9,90
	c-2.9,0-5.2,2.3-5.2,5.2c0,2.9,2.3,5.2,5.2,5.2c2.9,0,5.2-2.3,5.2-5.2C101.1,92.4,98.7,90,95.9,90z M95.9,99.7c-2.5,0-4.5-2-4.5-4.5
	s2-4.5,4.5-4.5s4.5,2,4.5,4.5S98.3,99.7,95.9,99.7z M19.3,52.6c-0.1,0.2-0.3,0.4-0.4,0.7C9.3,38.7,3.6,25.8,3.6,17.2
	c0-3.6,1-6.3,2.8-8.2c4.9-4.9,15.6-3.6,29.9,3.7c0.2,0.1,0.3,0.3,0.2,0.5c-0.1,0.2-0.3,0.3-0.5,0.2C22.2,6.3,11.6,4.9,7,9.6
	c-1.7,1.7-2.6,4.3-2.6,7.7C4.4,25.7,9.9,38.3,19.3,52.6z M37.9,99.9c-2.8,0-5.1,2.3-5.1,5.1c0,2.8,2.3,5.1,5.1,5.1
	c2.8,0,5.1-2.3,5.1-5.1C43,102.2,40.8,99.9,37.9,99.9z M37.9,109.4c-2.4,0-4.4-2-4.4-4.4c0-2.4,2-4.4,4.4-4.4c2.4,0,4.4,2,4.4,4.4
	C42.3,107.4,40.4,109.4,37.9,109.4z M55.8,96.6c9.4,9.5,27.2,25,44.1,36.5c-0.2,0.1-0.4,0.3-0.7,0.4c-16.9-11.5-34.6-27-44-36.4
	C40.8,82.6,27.9,66.8,18.8,53.2c0.1-0.2,0.3-0.4,0.4-0.7C28.3,66.2,41.2,82,55.8,96.6z M74.9,54.6c-5.5,0-10,4.5-10,10s4.5,10,10,10
	s10-4.5,10-10S80.5,54.6,74.9,54.6z M74.9,73.9c-5.1,0-9.3-4.2-9.3-9.3s4.2-9.3,9.3-9.3s9.3,4.2,9.3,9.3S80,73.9,74.9,73.9z"/>
</svg>
